<svg t="1639453640584" class="icon" viewBox="0 0 1024 1024" version="1.1" xmlns="http://www.w3.org/2000/svg" p-id="2790" data-darkreader-inline-fill="" width="200" height="200"><path d="M895 432.51a151 151 0 0 0-23.28-59.44A52.7 52.7 0 0 1 891 366c30.68-4.86 59.78 17.87 65 50.79s-15.41 63.54-46.09 68.4a52.44 52.44 0 0 1-16.06 0.06 149.18 149.18 0 0 0 1.15-52.74z" fill="#754C24" p-id="2791" data-darkreader-inline-fill="" style="--darkreader-inline-fill:#daaf86;"></path><path d="M890.64 424.55a88.94 88.94 0 0 0-13.74-35.09 31.19 31.19 0 0 1 11.39-4.21c18.11-2.87 35.29 10.55 38.37 30s-9.1 37.51-27.21 40.38a31.08 31.08 0 0 1-9.48 0 88.09 88.09 0 0 0 0.67-31.08z" fill="#42210B" p-id="2792" data-darkreader-inline-fill="" style="--darkreader-inline-fill:#d0ccc5;"></path><path d="M130.06 540.38a150.67 150.67 0 0 0 20.71 60.39 52.77 52.77 0 0 1-19.58 6.29c-30.85 3.55-58.95-20.42-62.76-53.52s18.12-62.83 49-66.37a52.73 52.73 0 0 1 16 0.62 149 149 0 0 0-3.37 52.59z" fill="#754C24" p-id="2793" data-darkreader-inline-fill="" style="--darkreader-inline-fill:#daaf86;"></path><path d="M130.7 537.1a89 89 0 0 0 10.91 36.07 31.16 31.16 0 0 1-11.69 3.29c-18.28 1.42-34.34-13.32-35.87-32.94s12-36.67 30.33-38.1a31.33 31.33 0 0 1 9.46 0.72 88.18 88.18 0 0 0-3.14 30.96z" fill="#42210B" p-id="2794" data-darkreader-inline-fill="" style="--darkreader-inline-fill:#d0ccc5;"></path><path d="M131.32 445.78l-8.95-40.45C103.72 321.06 187.65 244 309.48 233.62l58.48-5a295.5 295.5 0 0 0 67.4-13.6l52.8-17.46c59.33-19.62 125.57-19.67 185.28-1.53 27.51 8.35 54.1 20.76 77.08 38.18C777 254.28 793.37 281.5 813 307.72c29.56 39.6 75.6 60.95 96 108.07 22.21 51.24 18.12 112.39-15.2 158-25.37 34.7-64.28 57.2-88 93.26C783.66 700.7 760 727 723 745.32c-73.79 36.51-165.09 34.87-242.75 12.37-16-5.36-30.88-11.62-46.95-17.84l-3.85-1.45a299.16 299.16 0 0 0-67.06-16.52l-58.33-7.54C182.55 698.64 100.38 618 120.92 534.57l9.85-40a106.33 106.33 0 0 0 0.55-48.79z" fill="#A56A42" p-id="2795" data-darkreader-inline-fill="" style="--darkreader-inline-fill:#845535;"></path><path d="M149.03 478.25a361.34 244.72 0 1 0 722.68 0 361.34 244.72 0 1 0-722.68 0Z" fill="#FFE4CA" p-id="2796" data-darkreader-inline-fill="" style="--darkreader-inline-fill:#532900;"></path><path d="M185.66 491.11a336.22 215.61 0 1 0 672.44 0 336.22 215.61 0 1 0-672.44 0Z" fill="#ED1C24" p-id="2797" data-darkreader-inline-fill="" style="--darkreader-inline-fill:#b70f15;"></path><path d="M421.99 400.42h220.43v156H421.99z" fill="#8C0919" p-id="2798" data-darkreader-inline-fill="" style="--darkreader-inline-fill:#700714;"></path><path d="M213.21 400.42c49.52-2.48 99-3.78 148.58-4.66s99-1.31 148.58-1.33 99.06 0.36 148.58 1.31 99.06 2.19 148.59 4.68c-49.53 2.5-99.06 3.81-148.59 4.69s-99.05 1.31-148.58 1.31-99.05-0.38-148.58-1.33-99.06-2.18-148.58-4.67zM277.38 556.42c49.53-2.48 99.06-3.78 148.58-4.66s99.06-1.31 148.59-1.34 99.05 0.37 148.58 1.32 99 2.18 148.58 4.68c-49.53 2.5-99.05 3.81-148.58 4.68s-99.06 1.31-148.58 1.32-99.06-0.42-148.55-1.33-99.09-2.18-148.62-4.67z" fill="" p-id="2799"></path><path d="M422 657.17c-2.49-32.6-3.77-65.2-4.7-97.79s-1.29-65.2-1.3-97.8 0.4-65.19 1.28-97.79S419.49 298.6 422 266c2.5 32.6 3.79 65.19 4.72 97.79S428 429 428 461.58s-0.42 65.2-1.3 97.8-2.23 65.19-4.7 97.79zM645.73 697.4c-2.48-32.6-3.77-65.2-4.7-97.8s-1.29-65.19-1.3-97.79 0.4-65.19 1.28-97.79 2.22-65.19 4.72-97.79c2.5 32.6 3.79 65.19 4.72 97.79s1.29 65.2 1.28 97.79-0.42 65.2-1.3 97.79-2.22 65.2-4.7 97.8z" fill="" p-id="2800"></path><path d="M672.15 621.15a4.66 4.66 0 0 1-4.16-3 11 11 0 0 1-0.73-4.37c0.46-10.64 17.67-20.18 32.71-20.18 15.21 0 32.23 9.75 32.72 20.18a11.39 11.39 0 0 1-0.43 3.58 3.59 3.59 0 0 1-3.07 2.57c-9.41 1-18.72 0.55-30.19 0.72-9 0.11-18.74 0.84-26.85 0.5z" fill="#FF7D99" p-id="2801" data-darkreader-inline-fill="" style="--darkreader-inline-fill:#ff7190;"></path><path d="M683.7 610.02a16.17 7.85 0 1 0 32.34 0 16.17 7.85 0 1 0-32.34 0Z" fill="#ED1C24" p-id="2802" data-darkreader-inline-fill="" style="--darkreader-inline-fill:#ef3138;"></path><path d="M275.36 505.24a4.16 4.16 0 0 1-3.56-3.18 14.15 14.15 0 0 1-0.62-4.58c0.4-11.16 15.09-21.17 27.94-21.17s27.51 10.23 27.93 21.17a14.3 14.3 0 0 1-0.37 3.75 3.32 3.32 0 0 1-2.62 2.7c-8 1-16 0.57-25.77 0.75-7.72 0.15-16 0.92-22.93 0.56z" fill="#FF7D99" p-id="2803" data-darkreader-inline-fill="" style="--darkreader-inline-fill:#ff7190;"></path><path d="M285.22 493.57a13.81 8.24 0 1 0 27.62 0 13.81 8.24 0 1 0-27.62 0Z" fill="#ED1C24" p-id="2804" data-darkreader-inline-fill="" style="--darkreader-inline-fill:#ef3138;"></path><path d="M277.38 380.11c39.93-1.65 79.85-2.52 119.78-3.11 20-0.36 39.92-0.45 59.88-0.66l59.89-0.22 59.89 0.21 29.94 0.28 15 0.15 15 0.23c39.92 0.59 79.85 1.46 119.77 3.12-39.92 1.67-79.85 2.54-119.77 3.13l-15 0.23-15 0.15-29.94 0.28-59.89 0.21-59.93-0.22c-20-0.22-39.92-0.3-59.88-0.67-39.89-0.58-79.81-1.45-119.74-3.11z" fill="#FFD5B3" p-id="2805" data-darkreader-inline-fill="" style="--darkreader-inline-fill:#612b00;"></path><path d="M622.82 640.36c-1.66-24.81-2.52-49.62-3.11-74.43s-0.9-49.62-0.89-74.43 0.24-49.62 0.88-74.43 1.45-49.62 3.12-74.43c1.66 24.81 2.53 49.62 3.12 74.43s0.87 49.62 0.88 74.43-0.31 49.62-0.89 74.43-1.46 49.62-3.11 74.43zM405.72 604c-1.65-24.81-2.52-49.62-3.11-74.43s-0.89-49.62-0.89-74.43 0.25-49.62 0.88-74.43 1.46-49.62 3.12-74.43c1.67 24.81 2.54 49.62 3.12 74.43s0.88 49.62 0.88 74.43-0.3 49.62-0.89 74.43-1.45 49.57-3.11 74.43z" fill="#FFD5B3" p-id="2806" data-darkreader-inline-fill="" style="--darkreader-inline-fill:#612b00;"></path><path d="M335 571.34c39.93-1.65 79.86-2.52 119.78-3.11 20-0.37 39.93-0.45 59.89-0.67l59.89-0.22 59.88 0.21 30 0.29 15 0.15 15 0.23c39.93 0.59 79.85 1.46 119.78 3.12-39.93 1.67-79.85 2.54-119.78 3.12l-15 0.24-15 0.15-30 0.28-59.88 0.21-59.89-0.22c-20-0.22-39.93-0.3-59.89-0.67-39.93-0.59-79.86-1.45-119.78-3.11z" fill="#FFD5B3" p-id="2807" data-darkreader-inline-fill="" style="--darkreader-inline-fill:#612b00;"></path><path d="M705.74 487.5a5.49 5.49 0 0 1-4.9-3.56 12.92 12.92 0 0 1-0.85-5.14c0.54-12.5 20.77-23.71 38.45-23.71 17.87 0 37.88 11.46 38.45 23.71a13.26 13.26 0 0 1-0.51 4.21 4.2 4.2 0 0 1-3.61 3c-11.06 1.16-22 0.64-35.47 0.85-10.63 0.14-22.03 1.04-31.56 0.64z" fill="#FF7D99" p-id="2808" data-darkreader-inline-fill="" style="--darkreader-inline-fill:#ff7190;"></path><path d="M719.31 474.42a19.01 9.23 0 1 0 38.02 0 19.01 9.23 0 1 0-38.02 0Z" fill="#ED1C24" p-id="2809" data-darkreader-inline-fill="" style="--darkreader-inline-fill:#ef3138;"></path><path d="M478.19 632.69a3.38 3.38 0 0 1-3-2.19 8 8 0 0 1-0.52-3.15c0.33-7.68 12.75-14.56 23.61-14.56s23.25 7 23.61 14.56a8.19 8.19 0 0 1-0.32 2.59 2.59 2.59 0 0 1-2.21 1.85c-6.79 0.71-13.51 0.39-21.78 0.52-6.58 0.1-13.58 0.63-19.39 0.38z" fill="#FF7D99" p-id="2810" data-darkreader-inline-fill="" style="--darkreader-inline-fill:#ff7190;"></path><path d="M486.52 624.66a11.67 5.67 0 1 0 23.34 0 11.67 5.67 0 1 0-23.34 0Z" fill="#ED1C24" p-id="2811" data-darkreader-inline-fill="" style="--darkreader-inline-fill:#ef3138;"></path><path d="M350.36 450.43a1.78 1.78 0 0 1-1.6-1.17 4.15 4.15 0 0 1-0.28-1.68c0.18-4.1 6.81-7.77 12.6-7.77s12.42 3.75 12.61 7.77a4.47 4.47 0 0 1-0.17 1.38 1.38 1.38 0 0 1-1.18 1c-3.63 0.38-7.22 0.21-11.63 0.28-3.49 0.04-7.22 0.32-10.35 0.19z" fill="#FF7D99" p-id="2812" data-darkreader-inline-fill="" style="--darkreader-inline-fill:#ff7190;"></path><path d="M354.81 446.14a6.23 3.03 0 1 0 12.46 0 6.23 3.03 0 1 0-12.46 0Z" fill="#ED1C24" p-id="2813" data-darkreader-inline-fill="" style="--darkreader-inline-fill:#ef3138;"></path><path d="M328.91 600.09a2 2 0 0 1-1.78-1.3 4.65 4.65 0 0 1-0.32-1.87c0.2-4.55 7.57-8.63 14-8.63s13.79 4.17 14 8.63a4.9 4.9 0 0 1-0.19 1.54 1.52 1.52 0 0 1-1.31 1.09c-4 0.43-8 0.24-12.91 0.31-3.87 0.06-8.02 0.37-11.49 0.23z" fill="#FF7D99" p-id="2814" data-darkreader-inline-fill="" style="--darkreader-inline-fill:#ff7190;"></path><path d="M333.85 595.33a6.92 3.36 0 1 0 13.84 0 6.92 3.36 0 1 0-13.84 0Z" fill="#ED1C24" p-id="2815" data-darkreader-inline-fill="" style="--darkreader-inline-fill:#ef3138;"></path><path d="M452.51 361.84a5 5 0 0 1-4.42-2.72 8.64 8.64 0 0 1-0.78-3.93c0.5-9.57 18.81-18.14 34.81-18.14 16.17 0 34.28 8.77 34.8 18.14a8.85 8.85 0 0 1-0.46 3.22 3.7 3.7 0 0 1-3.27 2.3c-10 0.89-19.91 0.5-32.11 0.65-9.61 0.13-19.93 0.78-28.57 0.48z" fill="#FF7D99" p-id="2816" data-darkreader-inline-fill="" style="--darkreader-inline-fill:#ff7190;"></path><path d="M464.8 351.84a17.21 7.06 0 1 0 34.42 0 17.21 7.06 0 1 0-34.42 0Z" fill="#ED1C24" p-id="2817" data-darkreader-inline-fill="" style="--darkreader-inline-fill:#ef3138;"></path><path d="M668.39 435.35a2.39 2.39 0 0 1-2.06-1.86 8.29 8.29 0 0 1-0.36-2.7c0.23-6.57 8.75-12.46 16.19-12.46s16 6 16.2 12.46a8.87 8.87 0 0 1-0.21 2.21 1.94 1.94 0 0 1-1.52 1.58c-4.66 0.61-9.27 0.34-15 0.45-4.42 0.08-9.22 0.54-13.24 0.32z" fill="#FF7D99" p-id="2818" data-darkreader-inline-fill="" style="--darkreader-inline-fill:#ff7190;"></path><path d="M674.11 428.48a8.01 4.85 0 1 0 16.02 0 8.01 4.85 0 1 0-16.02 0Z" fill="#ED1C24" p-id="2819" data-darkreader-inline-fill="" style="--darkreader-inline-fill:#ef3138;"></path><path d="M607 746.74a300.46 300.46 0 0 0 40.14-3.08 245.27 245.27 0 0 0 38.87-9 250.66 250.66 0 0 0 36.88-15.22 303.38 303.38 0 0 0 34.44-20.85 161.66 161.66 0 0 1-32.17 24.94 181.07 181.07 0 0 1-37.32 16.84c-6.55 2-13.17 3.77-19.87 5.14a190.34 190.34 0 0 1-20.29 2.82 161.86 161.86 0 0 1-40.68-1.59z" fill="#FFD5B3" p-id="2820" data-darkreader-inline-fill="" style="--darkreader-inline-fill:#ffc597;"></path><path d="M746.81 253.73a320 320 0 0 0-47.2-25.52 283.9 283.9 0 0 0-50.68-16.51 297.4 297.4 0 0 0-52.87-6.91 358.6 358.6 0 0 0-53.66 2.11 227.12 227.12 0 0 1 53.73-6.8 237.52 237.52 0 0 1 54.11 5.75 259 259 0 0 1 26.22 7.54 240.46 240.46 0 0 1 25.1 10.61 211.5 211.5 0 0 1 45.25 29.73z" fill="#42210B" p-id="2821" data-darkreader-inline-fill="" style="--darkreader-inline-fill:#351a09;"></path><path d="M282.13 258.37a241.48 241.48 0 0 0-40.42 12.68c-6.46 2.77-12.83 5.72-19 9.08a194.72 194.72 0 0 0-18 10.86 230.54 230.54 0 0 0-32.53 26.59 305.93 305.93 0 0 0-28 31.9 171.09 171.09 0 0 1 24.59-35.14A175.65 175.65 0 0 1 201.43 286c1.47-1 3-2 4.56-2.93s3-1.93 4.63-2.81l4.7-2.68c1.6-0.84 3.19-1.69 4.8-2.5A169.39 169.39 0 0 1 240 266.7a149.69 149.69 0 0 1 42.13-8.33z" fill="#42210B" p-id="2822" data-darkreader-inline-fill="" style="--darkreader-inline-fill:#d0ccc5;"></path><path d="M558.45 455c-2.76 1.64-6.65-5.62-14.55-1.06-1.08 0.62-2.24 0.29-3.28-1.56-0.89-1.59-1.32-1.51-3.16-2.73-4.08-2.72-7.84-0.9-10.5-2.68s-10.88-8.15-8-12.73 16.44-5.27 22.29-6.14c0.22 0-1.73-11.2-1.52-12.12 0.82-3.57 11.64-4 12.92-3.12 0.74 0.49 4 5.77 1.79 18.48-0.07 0.4 20.11 10.28 16.58 25.25-0.45 1.93-6.06-5.43-12.57-1.59z m0 0" fill="#009245" p-id="2823" data-darkreader-inline-fill="" style="--darkreader-inline-fill:#66ffae;"></path><path d="M563.94 457.84c-3.07 4.88-10.11 1.9-12.42 0.37-4.82-3.22-7.54 4.22-13.54 0.23-2.7-1.8-3-3.82-4.33-4.74-2.59-1.73-6.61 0.53-10.77-2.24-2.23-1.49-2.13-3.73-2.89-3.16-15.71 11.86-10.75 18.76-14.05 32.47-2.85 11.88-9.29 24.34-21.3 29.39-8 3.36-42.92 9.73-0.74 15.46 35.54 4.84 60.87-4 76.36-40.1 10.17-23.7 3.89-28.03 3.68-27.68z" fill="#ED1C24" p-id="2824" data-darkreader-inline-fill="" style="--darkreader-inline-fill:#ef3138;"></path><path d="M457.11 510.9a53.54 19.29 0 1 0 107.08 0 53.54 19.29 0 1 0-107.08 0Z" fill="#8C0919" p-id="2825" data-darkreader-inline-fill="" style="--darkreader-inline-fill:#f66d7e;"></path></svg>